<?xml version="1.0" encoding="UTF-8" standalone="no"?>
<!-- Created with Inkscape (http://www.inkscape.org/) -->

<svg
   width="200"
   height="200"
   viewBox="0 0 52.916665 52.916668"
   version="1.1"
   id="svg38738"
   xmlns="http://www.w3.org/2000/svg"
   xmlns:svg="http://www.w3.org/2000/svg">
  <defs
     id="defs38735" />
  <g
     id="layer1">
    <g
       font-size="10.583px"
       id="g38783"
       style="stroke-width:0.26458">
      <text
         x="35.340141"
         y="14.278846"
         font-family="'Yu Gothic'"
         style="line-height:1.25"
         xml:space="preserve"
         id="text38763"><tspan
           x="35.340141"
           y="14.278846"
           font-family="'Yu Gothic'"
           stroke-width="0.26458"
           id="tspan38761" /></text>
      <text
         x="26.305216"
         y="24.092627"
         font-family="sans-serif"
         style="line-height:1.25"
         xml:space="preserve"
         id="text38767"><tspan
           x="26.305216"
           y="24.092627"
           stroke-width="0.26458"
           id="tspan38765" /></text>
      <g
         id="g38781">
        <text
           x="9.5059338"
           y="11.80047"
           font-family="'UD Digi Kyokasho N-B'"
           style="line-height:1.25"
           xml:space="preserve"
           id="text38771"><tspan
             x="9.5059338"
             y="11.80047"
             font-family="'UD Digi Kyokasho N-B'"
             stroke-width="0.26458"
             id="tspan38769" /></text>
        <text
           x="10.161516"
           y="31.058184"
           font-family="'Yu Mincho'"
           style="line-height:1.25"
           xml:space="preserve"
           id="text38775"><tspan
             x="10.161516"
             y="31.058184"
             font-family="'Yu Mincho'"
             stroke-width="0.26458"
             id="tspan38773" /></text>
        <text
           x="36.876469"
           y="34.663883"
           font-family="'BIZ UDGothic'"
           style="line-height:1.25"
           xml:space="preserve"
           id="text38779"><tspan
             x="36.876469"
             y="34.663883"
             font-family="'BIZ UDGothic'"
             stroke-width="0.26458"
             id="tspan38777" /></text>
      </g>
    </g>
    <g
       font-size="10.583px"
       id="g38839"
       style="stroke-width:0.26458">
      <text
         x="35.340141"
         y="14.278846"
         font-family="'Yu Gothic'"
         style="line-height:1.25"
         xml:space="preserve"
         id="text38819"><tspan
           x="35.340141"
           y="14.278846"
           font-family="'Yu Gothic'"
           stroke-width="0.26458"
           id="tspan38817" /></text>
      <text
         x="26.305216"
         y="24.092627"
         font-family="sans-serif"
         style="line-height:1.25"
         xml:space="preserve"
         id="text38823"><tspan
           x="26.305216"
           y="24.092627"
           stroke-width="0.26458"
           id="tspan38821" /></text>
      <g
         id="g38837">
        <text
           x="9.5059338"
           y="11.80047"
           font-family="'UD Digi Kyokasho N-B'"
           style="line-height:1.25"
           xml:space="preserve"
           id="text38827"><tspan
             x="9.5059338"
             y="11.80047"
             font-family="'UD Digi Kyokasho N-B'"
             stroke-width="0.26458"
             id="tspan38825" /></text>
        <text
           x="10.161516"
           y="31.058184"
           font-family="'Yu Mincho'"
           style="line-height:1.25"
           xml:space="preserve"
           id="text38831"><tspan
             x="10.161516"
             y="31.058184"
             font-family="'Yu Mincho'"
             stroke-width="0.26458"
             id="tspan38829" /></text>
        <text
           x="36.876469"
           y="34.663883"
           font-family="'BIZ UDGothic'"
           style="line-height:1.25"
           xml:space="preserve"
           id="text38835"><tspan
             x="36.876469"
             y="34.663883"
             font-family="'BIZ UDGothic'"
             stroke-width="0.26458"
             id="tspan38833" /></text>
      </g>
    </g>
    <g
       stroke-width="0.26458"
       id="g38901"
       transform="translate(46.80153,77.460782)">
      <g
         font-size="10.583px"
         id="g38895">
        <text
           x="35.340141"
           y="14.278846"
           font-family="'Yu Gothic'"
           style="line-height:1.25"
           xml:space="preserve"
           id="text38875"><tspan
             x="35.340141"
             y="14.278846"
             font-family="'Yu Gothic'"
             stroke-width="0.26458"
             id="tspan38873" /></text>
        <text
           x="26.305216"
           y="24.092627"
           font-family="sans-serif"
           style="line-height:1.25"
           xml:space="preserve"
           id="text38879"><tspan
             x="26.305216"
             y="24.092627"
             stroke-width="0.26458"
             id="tspan38877" /></text>
        <g
           id="g38893">
          <text
             x="9.5059338"
             y="11.80047"
             font-family="'UD Digi Kyokasho N-B'"
             style="line-height:1.25"
             xml:space="preserve"
             id="text38883"><tspan
               x="9.5059338"
               y="11.80047"
               font-family="'UD Digi Kyokasho N-B'"
               stroke-width="0.26458"
               id="tspan38881" /></text>
          <text
             x="10.161516"
             y="31.058184"
             font-family="'Yu Mincho'"
             style="line-height:1.25"
             xml:space="preserve"
             id="text38887"><tspan
               x="10.161516"
               y="31.058184"
               font-family="'Yu Mincho'"
               stroke-width="0.26458"
               id="tspan38885" /></text>
          <text
             x="36.876469"
             y="34.663883"
             font-family="'BIZ UDGothic'"
             style="line-height:1.25"
             xml:space="preserve"
             id="text38891"><tspan
               x="36.876469"
               y="34.663883"
               font-family="'BIZ UDGothic'"
               stroke-width="0.26458"
               id="tspan38889" /></text>
        </g>
      </g>
      <g
         aria-label="ãŸ"
         id="g38899">
        <path
           d="m -31.397545,-63.18627 q 1.1886,-3.8034 1.4263,-6.6559 0.47542,-1.4263 -2.6148,-4.5165 l 3.5657,-2.1394 q 3.8034,2.1394 7.1314,4.2788 -1.1886,5.4674 -1.9017,7.3691 3.328,-0.95085 6.8936,-2.8525 3.5657,3.0903 5.7051,6.1805 -8.3199,2.3771 -14.263,3.328 -3.5657,13.787 -6.4182,20.681 -3.5657,8.0822 -6.1805,12.123 l -6.8936,-5.2297 q 3.8034,-4.5165 6.6559,-10.697 3.328,-7.1314 5.7051,-15.451 -3.8034,0.47542 -7.3691,1.9017 -3.328,-4.7542 -4.5165,-6.8936 l 2.3771,-2.8525 q 1.9017,1.9017 4.2788,2.1394 1.9017,0.23771 6.4182,-0.71314 z m 20.443,10.697 q -2.8525,-0.23771 -7.3691,2.1394 l -2.6148,-2.8525 q 3.0903,-2.8525 6.4182,-3.8034 4.2788,-1.4263 9.2708,-0.71314 5.4674,0.71314 9.2708,2.8525 l -3.8034,5.7051 q -2.3771,-1.1886 -3.8034,-0.95085 -1.4263,0.23771 -3.0903,0.95085 l -6.4182,3.0903 -3.0903,-2.3771 z m -4.7542,25.673 q -7.6068,-1.1886 -8.7953,-6.6559 -1.4263,-6.1805 4.7542,-10.222 l 2.8525,2.3771 q -2.3771,2.3771 -1.664,4.2788 0.47542,1.664 2.6148,2.3771 1.9017,0.71314 4.7542,0.71314 4.5165,0.23771 11.648,-1.1886 2.3771,3.8034 3.8034,6.8936 -10.459,2.8525 -19.968,1.4263 z"
           id="path38897" />
      </g>
    </g>
  </g>
</svg>
