<?xml version="1.0" encoding="UTF-8" standalone="no"?>
<!-- Created with Inkscape (http://www.inkscape.org/) -->

<svg
   width="200"
   height="200"
   viewBox="0 0 52.916665 52.916668"
   version="1.1"
   id="svg39126"
   xmlns="http://www.w3.org/2000/svg"
   xmlns:svg="http://www.w3.org/2000/svg">
  <defs
     id="defs39123" />
  <g
     id="layer1">
    <g
       aria-label="ãŸ"
       id="text40540"
       style="font-size:60.8542px;line-height:1.25;font-family:HGPSoeiKakugothicUB;-inkscape-font-specification:HGPSoeiKakugothicUB;">
      <path
         d="M 2.3771174,47.953393 Q 10.221604,34.641537 14.738126,19.903411 9.5084688,20.616546 4.2788111,20.616546 V 12.77206 Q 10.697027,12.534348 16.63982,11.821213 18.06609,6.5915552 18.779226,0.88647406 l 8.795333,1.42627024 q -0.713135,4.2788109 -1.663982,8.3199097 6.655928,-0.9508466 9.983892,-1.6639817 l 0.950847,8.0821987 Q 30.902523,18.477141 23.53346,19.190276 18.779226,37.018654 10.221604,52.232204 Z M 32.566505,36.067808 q -2.377117,3.565675 -0.713135,4.991946 1.901693,1.663981 9.270757,1.188558 6.180504,-0.475423 10.221603,-1.188558 l 0.713135,7.844486 Q 38.509298,51.281357 30.664811,49.855087 24.484307,48.666528 23.058036,43.912294 21.631766,39.15806 24.95973,33.69069 Z M 30.4271,21.329681 q 9.983891,0 19.967783,-0.475423 l 0.237712,7.844486 Q 40.410991,28.936456 30.4271,28.936456 Z"
         id="path42156" />
    </g>
  </g>
</svg>
